<svg id="visual" viewBox="0 0 960 25" width="960" height="25" xmlns="http://www.w3.org/2000/svg" xmlns:xlink="http://www.w3.org/1999/xlink" version="1.1"><rect x="0" y="0" width="960" height="25" fill="#CD5888"></rect><path d="M0 13L8.5 13.3C17 13.7 34 14.3 50.8 14.5C67.7 14.7 84.3 14.3 101.2 14.5C118 14.7 135 15.3 151.8 14.7C168.7 14 185.3 12 202.2 11.2C219 10.3 236 10.7 252.8 10.7C269.7 10.7 286.3 10.3 303.2 10.3C320 10.3 337 10.7 353.8 11.7C370.7 12.7 387.3 14.3 404.2 14.2C421 14 438 12 454.8 12C471.7 12 488.3 14 505.2 14.5C522 15 539 14 555.8 13.2C572.7 12.3 589.3 11.7 606.2 12C623 12.3 640 13.7 656.8 14.5C673.7 15.3 690.3 15.7 707.2 15.5C724 15.3 741 14.7 757.8 14.2C774.7 13.7 791.3 13.3 808.2 13.2C825 13 842 13 858.8 12.7C875.7 12.3 892.3 11.7 909.2 11.7C926 11.7 943 12.3 951.5 12.7L960 13L960 0L951.5 0C943 0 926 0 909.2 0C892.3 0 875.7 0 858.8 0C842 0 825 0 808.2 0C791.3 0 774.7 0 757.8 0C741 0 724 0 707.2 0C690.3 0 673.7 0 656.8 0C640 0 623 0 606.2 0C589.3 0 572.7 0 555.8 0C539 0 522 0 505.2 0C488.3 0 471.7 0 454.8 0C438 0 421 0 404.2 0C387.3 0 370.7 0 353.8 0C337 0 320 0 303.2 0C286.3 0 269.7 0 252.8 0C236 0 219 0 202.2 0C185.3 0 168.7 0 151.8 0C135 0 118 0 101.2 0C84.3 0 67.7 0 50.8 0C34 0 17 0 8.5 0L0 0Z" fill="#913175"></path><path d="M0 11L8.5 10.5C17 10 34 9 50.8 9.3C67.7 9.7 84.3 11.3 101.2 11.5C118 11.7 135 10.3 151.8 9.7C168.7 9 185.3 9 202.2 9C219 9 236 9 252.8 9C269.7 9 286.3 9 303.2 9.2C320 9.3 337 9.7 353.8 9.5C370.7 9.3 387.3 8.7 404.2 8.7C421 8.7 438 9.3 454.8 9.7C471.7 10 488.3 10 505.2 9.8C522 9.7 539 9.3 555.8 9.2C572.7 9 589.3 9 606.2 8.8C623 8.7 640 8.3 656.8 8.8C673.7 9.3 690.3 10.7 707.2 11.2C724 11.7 741 11.3 757.8 10.7C774.7 10 791.3 9 808.2 9C825 9 842 10 858.8 10C875.7 10 892.3 9 909.2 8.5C926 8 943 8 951.5 8L960 8L960 0L951.5 0C943 0 926 0 909.2 0C892.3 0 875.7 0 858.8 0C842 0 825 0 808.2 0C791.3 0 774.7 0 757.8 0C741 0 724 0 707.2 0C690.3 0 673.7 0 656.8 0C640 0 623 0 606.2 0C589.3 0 572.7 0 555.8 0C539 0 522 0 505.2 0C488.3 0 471.7 0 454.8 0C438 0 421 0 404.2 0C387.3 0 370.7 0 353.8 0C337 0 320 0 303.2 0C286.3 0 269.7 0 252.8 0C236 0 219 0 202.2 0C185.3 0 168.7 0 151.8 0C135 0 118 0 101.2 0C84.3 0 67.7 0 50.8 0C34 0 17 0 8.5 0L0 0Z" fill="#59386e"></path><path d="M0 8L8.5 8C17 8 34 8 50.8 7.7C67.7 7.3 84.3 6.7 101.2 6.2C118 5.7 135 5.3 151.8 5.7C168.7 6 185.3 7 202.2 7.2C219 7.3 236 6.7 252.8 6.5C269.7 6.3 286.3 6.7 303.2 6.8C320 7 337 7 353.8 7.2C370.7 7.3 387.3 7.7 404.2 8C421 8.3 438 8.7 454.8 8.3C471.7 8 488.3 7 505.2 6.8C522 6.7 539 7.3 555.8 7.5C572.7 7.7 589.3 7.3 606.2 7.5C623 7.7 640 8.3 656.8 8.2C673.7 8 690.3 7 707.2 6.8C724 6.7 741 7.3 757.8 7.7C774.7 8 791.3 8 808.2 7.7C825 7.3 842 6.7 858.8 6.3C875.7 6 892.3 6 909.2 6C926 6 943 6 951.5 6L960 6L960 0L951.5 0C943 0 926 0 909.2 0C892.3 0 875.7 0 858.8 0C842 0 825 0 808.2 0C791.3 0 774.7 0 757.8 0C741 0 724 0 707.2 0C690.3 0 673.7 0 656.8 0C640 0 623 0 606.2 0C589.3 0 572.7 0 555.8 0C539 0 522 0 505.2 0C488.3 0 471.7 0 454.8 0C438 0 421 0 404.2 0C387.3 0 370.7 0 353.8 0C337 0 320 0 303.2 0C286.3 0 269.7 0 252.8 0C236 0 219 0 202.2 0C185.3 0 168.7 0 151.8 0C135 0 118 0 101.2 0C84.3 0 67.7 0 50.8 0C34 0 17 0 8.5 0L0 0Z" fill="#2f3352"></path><path d="M0 5L8.5 4.8C17 4.7 34 4.3 50.8 4.2C67.7 4 84.3 4 101.2 3.8C118 3.7 135 3.3 151.8 3.5C168.7 3.7 185.3 4.3 202.2 4.3C219 4.3 236 3.7 252.8 3.5C269.7 3.3 286.3 3.7 303.2 3.7C320 3.7 337 3.3 353.8 3.5C370.7 3.7 387.3 4.3 404.2 4.7C421 5 438 5 454.8 4.7C471.7 4.3 488.3 3.7 505.2 3.7C522 3.7 539 4.3 555.8 4.3C572.7 4.3 589.3 3.7 606.2 3.3C623 3 640 3 656.8 3.2C673.7 3.3 690.3 3.7 707.2 3.8C724 4 741 4 757.8 3.8C774.7 3.7 791.3 3.3 808.2 3.5C825 3.7 842 4.3 858.8 4.5C875.7 4.7 892.3 4.3 909.2 4.2C926 4 943 4 951.5 4L960 4L960 0L951.5 0C943 0 926 0 909.2 0C892.3 0 875.7 0 858.8 0C842 0 825 0 808.2 0C791.3 0 774.7 0 757.8 0C741 0 724 0 707.2 0C690.3 0 673.7 0 656.8 0C640 0 623 0 606.2 0C589.3 0 572.7 0 555.8 0C539 0 522 0 505.2 0C488.3 0 471.7 0 454.8 0C438 0 421 0 404.2 0C387.3 0 370.7 0 353.8 0C337 0 320 0 303.2 0C286.3 0 269.7 0 252.8 0C236 0 219 0 202.2 0C185.3 0 168.7 0 151.8 0C135 0 118 0 101.2 0C84.3 0 67.7 0 50.8 0C34 0 17 0 8.5 0L0 0Z" fill="#20262e"></path></svg>